<?xml version="1.0" standalone="no"?>
<!DOCTYPE svg PUBLIC "-//W3C//DTD SVG 20010904//EN"
 "http://www.w3.org/TR/2001/REC-SVG-20010904/DTD/svg10.dtd">
<svg version="1.0" xmlns="http://www.w3.org/2000/svg"
 width="992.000000pt" height="992.000000pt" viewBox="0 0 992.000000 992.000000"
 preserveAspectRatio="xMidYMid meet">
<metadata>
Created by potrace 1.11, written by Peter Selinger 2001-2013
</metadata>
<g transform="translate(0.000000,992.000000) scale(0.100000,-0.100000)"
fill="#000000" stroke="none">
<path d="M4178 7022 c-9 -4 -58 -45 -109 -92 -51 -47 -103 -94 -115 -105 -13
-11 -59 -53 -102 -93 l-80 -73 0 -1305 0 -1305 36 5 c21 3 37 5 37 6 0 0 0
575 -1 1277 l-1 1278 41 40 c79 76 288 255 299 255 4 0 7 -633 7 -1406 l0
-1406 93 8 c50 4 97 7 104 7 8 0 11 238 12 961 0 529 0 980 0 1002 1 39 6 46
74 107 41 36 80 67 87 69 12 3 14 -169 15 -1062 0 -1008 1 -1065 18 -1064 9 0
55 1 102 2 l85 2 0 613 0 613 158 107 c87 59 161 107 165 107 4 0 7 -324 7
-720 l0 -720 68 0 c37 0 104 -3 149 -7 l83 -6 2 299 3 299 150 74 151 74 -1
243 c0 147 -4 247 -10 253 -6 5 -66 30 -135 56 -69 26 -147 55 -175 66 -27 11
-102 39 -165 62 l-115 43 -3 248 c-1 136 -4 251 -7 256 -2 4 -25 13 -50 20
-25 7 -46 18 -46 24 -1 6 -3 142 -4 301 -1 160 -3 293 -4 296 0 4 -29 17 -63
29 -35 13 -103 38 -153 57 -141 54 -180 68 -330 123 -77 28 -149 55 -160 60
-27 11 -87 30 -94 29 -3 0 -13 -3 -23 -7z"/>
<path d="M5717 4853 c-6 -11 -3 -750 3 -756 5 -5 39 -10 155 -23 28 -3 96 -12
153 -20 57 -8 107 -12 112 -9 5 3 9 144 8 326 -1 315 -1 321 -22 334 -19 12
-83 38 -211 85 -27 10 -80 30 -117 44 -74 29 -75 29 -81 19z"/>
<path d="M4897 4044 c-1 -1 -92 -4 -202 -8 -110 -3 -216 -8 -235 -10 -19 -3
-71 -7 -115 -11 -73 -6 -336 -39 -410 -51 -35 -6 -231 -42 -260 -48 -11 -3
-54 -12 -95 -21 -169 -35 -456 -120 -466 -137 -4 -6 1 -8 12 -5 19 6 127 26
174 33 217 30 457 59 575 69 39 3 84 8 100 10 17 2 79 7 140 10 60 4 112 8
115 10 13 8 444 20 715 20 274 -1 608 -11 645 -20 8 -2 60 -6 115 -10 55 -3
116 -8 135 -10 19 -3 82 -9 140 -15 150 -13 736 -83 813 -96 52 -9 27 5 -55
30 -74 22 -228 63 -268 71 -8 2 -33 8 -55 13 -42 12 -219 49 -270 58 -188 31
-271 45 -330 53 -71 10 -83 12 -255 31 -52 6 -111 12 -131 15 -60 7 -526 23
-532 19z"/>
<path d="M4269 3623 c-1 -5 -2 -97 -3 -205 l-1 -198 52 0 53 0 0 93 c0 101 12
127 58 127 42 0 52 -25 52 -126 l0 -95 53 3 52 3 0 90 c1 113 -7 152 -38 183
-32 32 -101 41 -145 18 l-32 -17 0 66 0 65 -50 0 c-27 0 -50 -3 -51 -7z"/>
<path d="M5629 3608 c-31 -13 -59 -56 -59 -90 0 -12 7 -36 15 -52 15 -28 15
-31 -9 -50 -45 -38 -59 -94 -34 -139 18 -34 32 -44 74 -56 54 -15 91 -13 152
8 43 15 54 16 63 4 16 -18 32 -16 50 5 30 35 32 43 11 58 -19 13 -20 17 -6 49
20 48 18 62 -10 69 -13 3 -31 9 -40 12 -10 4 -16 1 -16 -8 0 -8 -5 -19 -12
-26 -9 -9 -16 -8 -30 5 -24 21 -23 30 8 56 16 14 27 36 31 62 4 36 1 44 -26
71 -26 26 -39 31 -84 31 -28 1 -64 -3 -78 -9z m90 -67 c17 -11 8 -36 -18 -51
-18 -9 -21 -7 -27 16 -9 35 15 54 45 35z m4 -215 c20 -23 8 -36 -33 -36 -34 1
-57 20 -55 48 4 50 34 46 88 -12z"/>
<path d="M6260 3611 c-73 -23 -113 -59 -136 -123 -28 -81 -12 -160 46 -217 76
-75 211 -81 291 -14 l32 27 -39 33 c-31 27 -39 31 -46 19 -11 -20 -74 -39
-104 -32 -99 25 -111 169 -19 213 29 14 41 14 75 4 22 -6 40 -16 40 -21 0 -20
37 -9 64 19 l27 28 -31 26 c-49 42 -134 58 -200 38z"/>
<path d="M3280 3415 l0 -195 55 0 55 0 0 51 c0 40 5 56 22 70 21 19 21 19 36
-3 9 -13 18 -25 22 -28 3 -3 21 -25 39 -48 l34 -44 76 3 c42 1 84 -1 95 -6 51
-22 103 39 76 90 -19 35 -82 36 -105 1 -9 -14 -15 -33 -13 -43 6 -36 -21 -17
-74 52 -29 38 -61 79 -70 89 -10 11 -18 25 -18 30 0 6 33 47 74 91 l74 80 -61
3 c-47 2 -64 -1 -73 -13 -19 -25 -123 -135 -129 -135 -3 0 -5 34 -5 75 l0 75
-55 0 -55 0 0 -195z"/>
<path d="M3850 3415 l0 -195 55 0 55 0 0 51 c0 40 5 56 21 70 21 18 22 18 73
-49 l52 -67 67 -3 68 -3 -48 63 c-26 35 -50 65 -53 68 -15 15 -60 80 -60 87 0
5 33 44 74 88 l75 80 -59 3 -59 3 -63 -67 c-35 -36 -64 -70 -66 -75 -2 -5 -8
-9 -13 -9 -5 0 -9 34 -9 75 l0 75 -55 0 -55 0 0 -195z"/>
<path d="M4688 3512 l-37 -17 16 -33 c13 -27 20 -32 37 -27 70 22 111 17 119
-15 5 -18 0 -20 -52 -20 -98 0 -146 -48 -127 -127 9 -33 62 -63 113 -63 23 0
44 4 47 9 3 5 36 6 72 3 l67 -5 -5 115 c-4 98 -7 119 -27 146 -36 52 -148 69
-223 34z m142 -186 c0 -17 -27 -46 -41 -46 -36 0 -65 42 -36 53 28 12 77 7 77
-7z"/>
<path d="M5156 3523 c-4 -4 -40 -8 -79 -8 l-71 0 -1 -145 0 -145 53 -3 52 -3
0 95 c0 87 2 96 22 110 31 22 65 20 78 -3 5 -11 10 -60 10 -110 l0 -91 53 0
53 0 -2 108 c-2 124 -11 154 -56 182 -32 20 -98 27 -112 13z"/>
<path d="M6615 3523 c-60 -15 -107 -79 -111 -149 -8 -158 223 -225 318 -92 39
55 30 144 -21 201 -33 39 -118 57 -186 40z m107 -107 c34 -41 12 -106 -41
-119 -53 -13 -92 72 -53 119 30 38 63 38 94 0z"/>
<path d="M4500 3060 c0 -33 0 -63 -1 -67 0 -5 7 -9 15 -11 12 -3 16 5 16 33 0
46 24 43 28 -3 5 -52 32 -41 32 12 0 36 -4 46 -20 51 -11 3 -24 3 -30 0 -6 -4
-10 5 -10 19 0 16 -6 26 -15 26 -12 0 -15 -13 -15 -60z"/>
<path d="M4658 3113 c-2 -4 -2 -36 0 -70 3 -47 8 -63 19 -63 11 0 14 13 11 67
-2 39 -8 68 -15 70 -6 2 -13 0 -15 -4z"/>
<path d="M4910 3050 c0 -56 3 -70 15 -70 8 0 15 7 15 15 0 8 5 15 10 15 6 0
13 -7 16 -15 4 -8 15 -15 25 -15 23 0 23 4 3 35 -15 23 -15 26 2 42 17 17 17
18 0 21 -10 2 -23 -1 -29 -7 -18 -18 -27 -12 -27 19 0 20 -5 30 -15 30 -12 0
-15 -14 -15 -70z"/>
<path d="M5978 3113 c-2 -4 -2 -36 0 -70 3 -47 8 -63 18 -63 12 0 14 14 12 67
-2 39 -8 68 -15 70 -6 2 -13 0 -15 -4z"/>
<path d="M6070 3050 c0 -56 3 -70 15 -70 17 0 16 -1 16 70 0 71 1 70 -16 70
-12 0 -15 -14 -15 -70z"/>
<path d="M3770 3106 c0 -3 10 -21 21 -41 12 -20 22 -46 23 -58 1 -29 36 -36
36 -7 0 11 9 38 20 60 24 46 24 50 7 50 -7 0 -20 -12 -29 -27 l-16 -27 -13 27
c-7 15 -20 27 -31 27 -10 0 -18 -2 -18 -4z"/>
<path d="M4330 3099 c0 -6 9 -13 20 -16 17 -4 20 -14 20 -55 0 -42 3 -49 17
-46 14 3 17 13 17 51 -1 38 2 47 16 47 10 0 20 7 24 15 4 12 -5 15 -54 15 -37
0 -60 -4 -60 -11z"/>
<path d="M5150 3108 c0 -2 9 -30 19 -63 14 -46 24 -61 40 -63 17 -3 23 3 27
27 8 40 23 40 31 0 4 -23 10 -29 26 -27 19 3 34 31 51 101 10 41 -20 35 -35
-7 -15 -40 -24 -39 -32 4 -9 45 -43 41 -51 -5 -8 -41 -21 -38 -31 5 -5 21 -13
30 -26 30 -10 0 -19 -1 -19 -2z"/>
<path d="M5640 3045 l0 -65 44 0 c24 0 51 3 60 6 18 7 22 39 6 49 -7 4 -7 12
-2 18 24 33 -3 57 -65 57 l-43 0 0 -65z m74 20 c-3 -8 -12 -11 -20 -8 -15 5
-18 16 -8 26 11 10 33 -4 28 -18z m-3 -50 c1 -17 -18 -17 -25 0 -4 11 -1 15
10 13 8 -2 15 -7 15 -13z"/>
<path d="M6178 3081 c-14 -17 -15 -24 -3 -58 10 -29 19 -39 39 -41 28 -4 36
15 11 24 -36 14 -10 24 62 24 86 0 94 11 9 14 -46 2 -59 7 -78 29 -23 26 -24
26 -40 8z"/>
<path d="M3942 3060 c-16 -26 -15 -45 4 -64 31 -32 94 -7 94 37 0 43 -74 64
-98 27z m62 -18 c2 -4 1 -14 -4 -21 -11 -19 -41 -6 -34 14 6 16 29 20 38 7z"/>
<path d="M4090 3041 c0 -47 13 -59 63 -59 l37 0 0 50 c0 41 -3 49 -17 46 -12
-2 -17 -13 -18 -33 0 -43 -29 -40 -33 3 -5 48 -32 43 -32 -7z"/>
<path d="M4750 3029 c0 -36 4 -49 14 -49 9 0 16 12 18 33 2 20 8 32 18 32 10
0 16 -12 18 -32 5 -49 32 -44 32 6 0 47 -13 59 -62 59 l-38 0 0 -49z"/>
<path d="M5407 3062 c-10 -10 -17 -25 -17 -34 0 -23 33 -48 64 -48 33 0 31 23
-2 25 -38 3 -37 15 1 15 30 0 37 4 37 20 0 19 -27 40 -53 40 -8 0 -21 -8 -30
-18z"/>
<path d="M5820 3035 c0 -39 3 -45 24 -51 29 -7 72 -2 69 9 -2 4 -3 25 -3 47 0
29 -4 40 -15 40 -10 0 -15 -11 -15 -35 0 -24 -5 -35 -15 -35 -10 0 -15 11 -15
35 0 24 -5 35 -15 35 -11 0 -15 -12 -15 -45z"/>
<path d="M3485 3040 c-3 -5 1 -10 10 -10 9 0 13 5 10 10 -3 6 -8 10 -10 10 -2
0 -7 -4 -10 -10z"/>
<path d="M3530 3040 c-12 -8 -10 -10 8 -10 13 0 20 4 17 10 -7 12 -6 12 -25 0z"/>
<path d="M3570 3038 c0 -5 32 -8 70 -8 39 0 70 4 70 8 0 5 -31 9 -70 8 -38 -1
-70 -4 -70 -8z"/>
<path d="M6380 3040 c-12 -8 -10 -10 8 -10 13 0 20 4 17 10 -7 12 -6 12 -25 0z"/>
</g>
</svg>
